<mxfile host="app.diagrams.net" agent="Mozilla/5.0 (Windows NT 10.0; Win64; x64) AppleWebKit/537.36 (KHTML, like Gecko) Chrome/136.0.0.0 Safari/537.36" version="27.0.6">
  <diagram name="Página-1" id="mzV9Ki5fLiFIrYncMBur">
    <mxGraphModel dx="852" dy="604" grid="1" gridSize="10" guides="1" tooltips="1" connect="1" arrows="1" fold="1" page="1" pageScale="1" pageWidth="827" pageHeight="1169" math="0" shadow="0">
      <root>
        <mxCell id="0" />
        <mxCell id="1" parent="0" />
        <mxCell id="iyma_uOJgiQ-1A5DE7dF-2" value="" style="html=1;whiteSpace=wrap;" vertex="1" parent="1">
          <mxGeometry x="210" y="30" width="980" height="1240" as="geometry" />
        </mxCell>
        <mxCell id="iyma_uOJgiQ-1A5DE7dF-3" value="Adm" style="shape=umlActor;verticalLabelPosition=bottom;verticalAlign=top;html=1;" vertex="1" parent="1">
          <mxGeometry x="120" y="170" width="30" height="60" as="geometry" />
        </mxCell>
        <mxCell id="iyma_uOJgiQ-1A5DE7dF-8" style="edgeStyle=orthogonalEdgeStyle;rounded=0;orthogonalLoop=1;jettySize=auto;html=1;exitX=1;exitY=0.3333333333333333;exitDx=0;exitDy=0;exitPerimeter=0;" edge="1" parent="1" source="iyma_uOJgiQ-1A5DE7dF-4" target="iyma_uOJgiQ-1A5DE7dF-7">
          <mxGeometry relative="1" as="geometry" />
        </mxCell>
        <mxCell id="iyma_uOJgiQ-1A5DE7dF-12" style="edgeStyle=orthogonalEdgeStyle;rounded=0;orthogonalLoop=1;jettySize=auto;html=1;exitX=1;exitY=0.3333333333333333;exitDx=0;exitDy=0;exitPerimeter=0;" edge="1" parent="1" source="iyma_uOJgiQ-1A5DE7dF-4" target="iyma_uOJgiQ-1A5DE7dF-11">
          <mxGeometry relative="1" as="geometry">
            <Array as="points">
              <mxPoint x="360" y="160" />
              <mxPoint x="360" y="205" />
            </Array>
          </mxGeometry>
        </mxCell>
        <mxCell id="iyma_uOJgiQ-1A5DE7dF-4" value="Usuário" style="shape=umlActor;verticalLabelPosition=bottom;verticalAlign=top;html=1;" vertex="1" parent="1">
          <mxGeometry x="270" y="140" width="30" height="60" as="geometry" />
        </mxCell>
        <mxCell id="iyma_uOJgiQ-1A5DE7dF-6" value="Programa" style="text;align=center;fontStyle=1;verticalAlign=middle;spacingLeft=3;spacingRight=3;strokeColor=none;rotatable=0;points=[[0,0.5],[1,0.5]];portConstraint=eastwest;html=1;" vertex="1" parent="1">
          <mxGeometry x="510" y="60" width="80" height="20" as="geometry" />
        </mxCell>
        <mxCell id="iyma_uOJgiQ-1A5DE7dF-7" value="Pedido" style="ellipse;whiteSpace=wrap;html=1;" vertex="1" parent="1">
          <mxGeometry x="460" y="90" width="140" height="70" as="geometry" />
        </mxCell>
        <mxCell id="iyma_uOJgiQ-1A5DE7dF-11" value="Pagamento" style="ellipse;whiteSpace=wrap;html=1;" vertex="1" parent="1">
          <mxGeometry x="460" y="170" width="140" height="70" as="geometry" />
        </mxCell>
        <mxCell id="iyma_uOJgiQ-1A5DE7dF-13" value="Extends" style="endArrow=block;endSize=16;endFill=0;html=1;rounded=0;exitX=1;exitY=0.5;exitDx=0;exitDy=0;" edge="1" parent="1" source="iyma_uOJgiQ-1A5DE7dF-11" target="iyma_uOJgiQ-1A5DE7dF-14">
          <mxGeometry width="160" relative="1" as="geometry">
            <mxPoint x="490" y="270" as="sourcePoint" />
            <mxPoint x="650" y="270" as="targetPoint" />
          </mxGeometry>
        </mxCell>
        <mxCell id="iyma_uOJgiQ-1A5DE7dF-14" value="Cancelamento" style="ellipse;whiteSpace=wrap;html=1;" vertex="1" parent="1">
          <mxGeometry x="670" y="210" width="140" height="70" as="geometry" />
        </mxCell>
        <mxCell id="iyma_uOJgiQ-1A5DE7dF-15" value="Comanda" style="ellipse;whiteSpace=wrap;html=1;" vertex="1" parent="1">
          <mxGeometry x="670" y="110" width="140" height="70" as="geometry" />
        </mxCell>
        <mxCell id="iyma_uOJgiQ-1A5DE7dF-17" value="" style="endArrow=open;endFill=1;endSize=12;html=1;rounded=0;exitX=1;exitY=0.5;exitDx=0;exitDy=0;entryX=0.031;entryY=0.642;entryDx=0;entryDy=0;entryPerimeter=0;" edge="1" parent="1" source="iyma_uOJgiQ-1A5DE7dF-11" target="iyma_uOJgiQ-1A5DE7dF-15">
          <mxGeometry width="160" relative="1" as="geometry">
            <mxPoint x="490" y="270" as="sourcePoint" />
            <mxPoint x="650" y="270" as="targetPoint" />
          </mxGeometry>
        </mxCell>
        <mxCell id="iyma_uOJgiQ-1A5DE7dF-18" style="edgeStyle=orthogonalEdgeStyle;rounded=0;orthogonalLoop=1;jettySize=auto;html=1;exitX=1;exitY=0.3333333333333333;exitDx=0;exitDy=0;exitPerimeter=0;entryX=0;entryY=0.5;entryDx=0;entryDy=0;" edge="1" parent="1" source="iyma_uOJgiQ-1A5DE7dF-4" target="iyma_uOJgiQ-1A5DE7dF-19">
          <mxGeometry relative="1" as="geometry">
            <Array as="points">
              <mxPoint x="350" y="160" />
              <mxPoint x="350" y="315" />
            </Array>
          </mxGeometry>
        </mxCell>
        <mxCell id="iyma_uOJgiQ-1A5DE7dF-19" value="Alerta de&lt;div&gt;pedido&lt;/div&gt;&lt;div&gt;pronto&lt;/div&gt;" style="ellipse;whiteSpace=wrap;html=1;" vertex="1" parent="1">
          <mxGeometry x="460" y="280" width="140" height="70" as="geometry" />
        </mxCell>
      </root>
    </mxGraphModel>
  </diagram>
</mxfile>
